<?xml version="1.0" encoding="UTF-8"?>
<svg id="Layer_1" data-name="Layer 1" xmlns="http://www.w3.org/2000/svg" viewBox="0 0 824.39 144.25">
  <defs>
    <style>
      .cls-1, .cls-2, .cls-3, .cls-4 {
        stroke: #fbb03a;
        stroke-miterlimit: 10;
        stroke-width: 4px;
      }

      .cls-2, .cls-5 {
        fill: #fff;
      }

      .cls-3 {
        fill: #231f20;
      }

      .cls-4 {
        fill: none;
      }
    </style>
  </defs>
  <path class="cls-1" d="M473.63,93.46c1.43-3.67,3.88-10.08,4.65-12.91.03-.11.06-.23.09-.34,1.41-4.99,2.07-10.2,1.93-15.41l-.08-3.2c.51-2.03-9.71,8.4-11.26,9.71l-10.6,10.2c-3.3,4.45-16.33,12.27-21.86,13.13-8.66,1.35-20.23,2.4-25.8-11.2-1.66-4.05-.66-11.23.79-15.72l12.38-35.69c7.03-20.55,11.58-29.95,11.58-29.95,0,0,11.24-.09,14.57-.07,10.1.07,5.45,5.32-1.49,17.86l-4.05,9.62-3.89,10.75c-1.81,5.68-12.33,32.66-4.67,32.06,1.14-.09,2.19-.7,2.99-1.58l37.42-40.21.07-.08,7.05-8.73c3.16-4.29,7.01-9.9,11.12-13.07l2.35-1.63c2.78-1.93,5.96-3.14,9.27-3.53,2.68-.31,5.44-.63,5.54-.63l6.91.99c1.3.35-1.26,12.26-1.41,13.67-1.34,12.35-7.85,30.5-9.21,41.38l-6.08,24.89c-2.24,7.53-5.51,20.72-8.88,27.8-7.77,16.34-17.24,29.51-34.87,29.62l-269.48,1.05c-2.94.02,3.49-21.11,6.27-21.55,10.21-1.61,136.82-2.7,136.82-2.7l90.73-1.34,22.05-.85s3.34-.39,5.33-.85c3.34-.77,6.51-2.15,9.36-4.05l1.2-.8c.48-.32.93-.67,1.36-1.04l2.03-1.79c1.97-1.73,3.66-3.75,5.02-5.99l4.75-7.83Z"/>
  <path class="cls-1" d="M208.68,74.08c-16.12-.03-25.08.82-41.44-.07l7.3-19.58,8.67-23.09,10.47-29.33-31.52.06c-2.12,0-4.03,1.81-3.94,3.67l-13.58,37.77-8.81,23.94-2.41,6.54h-9.12s-23.36-.09-23.36-.09l10.22-27.49L128.02,2.12l-34.95-.04-14.19,38.44-5.83,15.54-6.83,18.16-13.04-.35c-11.56-.3-23.47,1.27-33.01,7.83-11.57,7.97-18.54,22.26-18.16,35.52.36,13.07,10.71,22.87,24.27,23.9.86.06,2.9.81,3.82,1.13h11.14c8.68-1.95,17.59-3.34,25.13-8.42,4.75-3.2,9.21-6.34,12.38-11,9.27-13.66,11.66-21.34,17.22-36.52h33.11s-13.66,39.07-13.66,39.07h33.19s9.72-27.55,9.72-27.55l4.35-11.46,34.45-.05c4.28-.01,6.62-.01,9.36-3.79,1.87-2.58,3.87-5.35,2.19-8.45ZM50.66,115.03c-1.77,4.65-6.95,14.32-13.48,13.09-1.38-.26-3.71-2.3-4.03-3.8-2.01-9.63,1.97-20.66,6.48-29.44,5.67-11.05,11.33-8.5,21.99-8.59l-10.96,28.74Z"/>
  <path class="cls-4" d="M61.62,86.29l-10.96,28.74c-1.77,4.65-6.95,14.32-13.48,13.09-1.38-.26-3.71-2.3-4.03-3.8-2.01-9.63,1.97-20.66,6.48-29.44,5.67-11.05,11.33-8.5,21.99-8.59Z"/>
  <path class="cls-4" d="M61.62,86.29l-10.96,28.74c-1.77,4.65-6.95,14.32-13.48,13.09-1.38-.26-3.71-2.3-4.03-3.8-2.01-9.63,1.97-20.66,6.48-29.44,5.67-11.05,11.33-8.5,21.99-8.59Z"/>
  <path class="cls-5" d="M407.85,91.61l-14.08-.31-23.64.88c-4.9-.03-9.4.61-14.68-.97l21.28-55.39c3.31-8.62,6.72-16.21,11.15-24.31-5.31-.69-10.3-.3-15.57-.07-4.9.21-11.35-1.4-15.81,1.41-3.9,2.46-3.51,7.72-4.96,11.47l-19.46,50.46c-2.65,6.87-5.26,13.18-7.34,20.27-1.11,3.77,1.44,8.52,6.18,8.51l41.07-.11,20.47-2.77c6.89-.9,13.05-2.88,15.38-9.08Z"/>
  <path class="cls-1" d="M407.85,91.61c-2.33,6.2-4.02,9.44-10.91,10.34l-24.94.7-41.07.11c-12.05-.07-6.67-7.86-5.39-11.58,2.03-5.87,3.89-9.52,6.54-16.39l17.33-44.93c1.45-3.75,4.93-12.69,8.83-15.15,4.46-2.82,9.17-3.06,14.07-3.27,5.27-.23,10.25-.62,15.57.07-4.44,8.1-7.84,15.69-11.15,24.31l-21.28,55.39,52.4.4Z"/>
  <path class="cls-3" d="M326.35,91.73l-29.4-.4,21.28-56.39c3.31-8.62,6.72-16.21,11.15-24.31-5.31-.69-10.3-1.1-15.57-.88-4.9.21-9.63-.6-14.09,2.22-3.9,2.46-5.23,7.72-6.68,11.47l-19.46,50.46c-2.65,6.87-5.26,13.18-7.34,20.27-1.11,3.77-6.06,9.38,5.18,9.51l56.02-1.14"/>
  <path class="cls-1" d="M531.74,103.5c-10.81-.18-18.53-6.65-20.47-13.92-2.43-9.1,3.51-27.98,18.54-33.05,14.83-5,26.24-4.47,41.29-.02,5.71,1.69,10.8,5.94,10.74,11.33-.1,7.87-6.74,13.46-15.89,15.39-13.7,1.55-21.01.27-31.38,1.66-.17,5.2.76,7.31,6.06,7.35l23.33.18c9.38-.12,24.61.37,30.74-1.19,2.11,5.62-8.25,10.57-15.22,10.99-6.8.41-11.52.02-30.45,1.11l-17.3.17ZM559.16,72.74l1.04-7.31c-11.82-1.63-22.69,2.36-23.2,7.89l22.16-.58Z"/>
  <path class="cls-1" d="M269.06,103.22c-6.8.41-11.52.02-30.45,1.11l-17.3.17c-10.81-.18-18.53-6.65-20.47-13.92-2.43-9.1,3.51-27.98,18.54-33.05,14.83-5,26.24-4.47,41.29-.02,5.71,1.69,10.8,5.94,10.74,11.33-.1,7.87-6.74,13.46-15.89,15.39-13.7,1.55-17.86,1.34-31.38,1.66-.17,5.2.76,7.31,6.06,7.35l37.33.18M248.72,72.74l1.04-6.31c-11.82-1.63-23.69,1.36-24.2,6.89l23.16-.58Z"/>
  <path class="cls-1" d="M687.66,88.21c-1.67.11-25.71,1.52-24.98-1.23,1.27-3.4,3.06-7.02,4.56-10.31l3.81-8.34,6.14-14.15c-8.45-.64-18.24-.53-27.69-.26l-2.7,1.91c-7.23-3.36-14.97-3.22-22.83-2.26-14.11,1.73-27.34,6.81-35.36,18.21-3.8,5.4-5.29,12.59-1.53,18.24,3.85,5.76,11.89,8.87,17.78,9.68h8.83c6.07-1.2,11.95-2.51,18.13-5.42,4.36,3.82,10.28,5.13,16.45,4.81l13.03.42c11.21-.99,25.45,2.31,34.04-11.65l-7.68.35ZM634.7,82.85c-1.61,2.92-13.12,8.96-17.83,3.9-1.7-1.83-2.64-4.46-2.3-7.4.9-8.01,8.1-15.29,16.48-16.56,4.47-.68,8.54.02,11.82,2.81-2.7,6.11-5.07,11.61-8.17,17.25Z"/>
  <path class="cls-2" d="M679.6,98.93l23.48-.25c7.18-.08,13.09-5.66,18.06-9.58l8.08-6.39"/>
  <path class="cls-1" d="M805.83,97.66l-33.18.46c-6.72.09-13.84,1.31-19.25-3.43s2.28-16.46,6.17-24.41l-22.35,13.8-8.08,5.48c-4.96,3.36-10.88,8.14-18.06,8.21l-23.48.21c2.85-8.84,7.25-15.94,11.02-24.02l24.24-51.96c1.33-2.86,2.18-5.62,4.08-9.48,5.57-1.07,15.91-1.82,17.93-1.82l17.92-.9c-4.12,7.23-7.9,15.23-10.35,20.5l-17.25,38.67c13.71-7.12,24.89-14.2,38.78-19.48,6.84-2.6,15.11-1.96,22.3-1.16,3.51,1.06,6.08,3.3,4.78,6.21l-14.16,31.83c8.95.54,16.11.58,24.48.25l10.59-.41c3.07,6.41-10.57,11.35-16.11,11.42Z"/>
</svg>