<?xml version="1.0" encoding="UTF-8"?>
<svg id="Layer_2" data-name="Layer 2" xmlns="http://www.w3.org/2000/svg" viewBox="0 0 816.39 144.25">
  <defs>
    <style>
      .cls-1, .cls-2, .cls-3 {
        stroke: #fbb03a;
        stroke-miterlimit: 10;
        stroke-width: 4px;
      }

      .cls-2, .cls-4 {
        fill: #fff;
      }

      .cls-3 {
        fill: #231f20;
      }
    </style>
  </defs>
  <g id="Layer_1-2" data-name="Layer 1">
    <g>
      <path class="cls-4" d="M50.67,115.03c-1.77,4.64-6.95,14.31-13.48,13.08-1.38-.26-3.71-2.29-4.03-3.8-2.01-9.63,1.97-20.66,6.47-29.43,5.68-11.05,11.33-8.5,21.99-8.6l-10.95,28.75Z"/>
      <g>
        <path class="cls-1" d="M457.16,104.66c1.69-1.61,5.28-5.31,6.72-7.14,3.19-4.05,4.34-6.62,4.87-7.82,1.36-3.09,3.69-8.49,4.42-10.87.03-.09.06-.19.09-.29,1.34-4.21,1.97-8.59,1.84-12.98l-.08-2.7c.49-1.71-10.24,9.07-11.72,10.18l-15.09,11.59c-3.14,3.75-15.55,10.34-20.81,11.06-8.25,1.14-19.26,2.02-24.57-9.44-1.58-3.41-.63-9.46.76-13.25l14.05-47.71c.4-1.08.81-2.12,1.24-3.15,2.72-6.45,9.51-10.58,16.91-10.43,3.23.06,7.38.29,10.49.93,6.14,1.28.33,7.01-1.42,12.05l-3.85,11.11-3.71,9.06c-1.72,4.78-11.74,27.52-4.44,27.01,1.09-.08,2.09-.59,2.84-1.33l35.63-33.88.06-.07,6.71-7.35c3.01-3.61,6.67-8.34,10.59-11.01l2.24-1.38c2.65-1.63,5.67-2.65,8.82-2.98,2.55-.27,5.18-.53,5.28-.53l6.58.84c1.24.29-1.2,10.33-1.34,11.52-1.28,10.41-7.47,25.7-8.77,34.86l-5.79,20.98c-2.14,6.35-5.25,17.46-8.45,23.42-7.4,13.77-16.42,20.86-33.2,20.95l-162.33.88c-2.8.02,3.57-7.93,5.97-9.1,5.46-2.65,25.52-3.13,29.34-3.28,11.19-.43,85.91-1.37,93.06-.97.82.05,11.52.14,20.99.13,2.9,0,9.06-1.83,12.13-5.28l3.93-3.64Z"/>
        <path class="cls-1" d="M41.25,142.25h-11.14c-.92-.32-2.96-1.07-3.82-1.13-13.56-1.03-23.91-10.83-24.27-23.9s6.6-27.55,18.17-35.51c9.53-6.56,21.45-8.14,33-7.83l13.04.35,6.84-18.16,5.83-15.54L93.07,2.07l34.96.04-16.86,44.29-10.22,27.49,23.36.1h9.12s2.41-6.56,2.41-6.56l8.81-23.94,13.58-37.77c-.1-1.86,1.82-3.66,3.94-3.67l31.51-.06-10.46,29.33-8.67,23.09-7.31,19.58c16.37.89,25.32.04,41.45.08,1.68,3.1-.32,5.87-2.2,8.45-2.74,3.78-5.08,3.78-9.36,3.79l-34.46.05-4.35,11.46-9.72,27.56h-33.19s13.66-39.08,13.66-39.08h-33.11c-5.56,15.19-7.94,22.87-17.22,36.53-3.16,4.66-7.63,7.79-12.37,10.99-7.54,5.08-16.46,6.47-25.13,8.43ZM50.67,115.03l10.95-28.75c-10.66.09-16.32-2.46-21.99,8.6-4.5,8.77-8.48,19.8-6.47,29.43.31,1.5,2.65,3.54,4.03,3.8,6.53,1.23,11.71-8.44,13.48-13.08Z"/>
        <g>
          <path class="cls-4" d="M400.86,92.6l-14.08-.31-16.64-.12c-4.9-.03-9.4.61-14.68-.97l21.28-55.39c3.31-8.62,6.72-16.21,11.15-24.31-5.31-.69-10.3-.3-15.57-.07-4.9.21-11.35-1.4-15.81,1.41-3.9,2.46-3.51,7.72-4.96,11.47l-19.46,50.46c-2.65,6.87-5.26,13.18-7.34,20.27-1.11,3.77,1.44,8.52,6.18,8.51l41.07-.11,13.47-1.77c6.89-.9,13.05-2.88,15.38-9.08Z"/>
          <g>
            <path class="cls-1" d="M400.86,92.6c-2.33,6.2-4.02,9.44-10.91,10.34l-17.94-.3-41.07.11c-12.05-.07-6.67-7.86-5.39-11.58,2.03-5.87,3.89-9.52,6.54-16.39l17.33-44.93c1.45-3.75,4.93-12.69,8.83-15.15,4.46-2.82,9.17-3.06,14.07-3.27,5.27-.23,10.25-.62,15.57.07-4.44,8.1-7.84,15.69-11.15,24.31l-21.28,55.39,45.4,1.4Z"/>
            <path class="cls-3" d="M326.35,91.73l-29.4-.4,21.28-56.39c3.31-8.62,6.72-16.21,11.15-24.31-5.31-.69-10.3-1.1-15.57-.88-4.9.21-9.63-.6-14.09,2.22-3.9,2.46-5.23,7.72-6.68,11.47l-19.46,50.46c-2.65,6.87-5.26,13.18-7.34,20.27-1.11,3.77-6.06,9.38,5.18,9.51l56.02-1.14"/>
          </g>
        </g>
        <g>
          <path class="cls-1" d="M523.75,104.5c-10.81-.18-18.53-6.65-20.47-13.92-2.43-9.1,3.51-27.98,18.54-33.05,14.83-5,26.24-4.47,41.29-.02,5.71,1.69,10.8,5.94,10.74,11.33-.1,7.87-6.74,13.46-15.89,15.39-13.7,1.55-21.01.27-31.38,1.66-.17,5.2.76,7.31,6.06,7.35l23.33.18c9.38-.12,24.61.37,30.74-1.19,2.11,5.62-8.25,10.57-15.22,10.99-6.8.41-11.52.02-30.45,1.11l-17.3.17ZM551.16,73.73l1.04-7.31c-11.82-1.63-22.69,2.36-23.2,7.89l22.16-.58Z"/>
          <path class="cls-1" d="M269.06,103.21c-6.8.41-11.52.02-30.45,1.11l-17.3.17c-10.81-.18-18.53-6.65-20.47-13.92-2.43-9.1,3.51-27.98,18.54-33.05,14.83-5,26.24-4.47,41.29-.02,5.71,1.69,10.8,5.94,10.74,11.33-.1,7.87-6.74,13.46-15.89,15.39-13.7,1.55-17.86,1.34-31.38,1.66-.17,5.2.76,7.31,6.06,7.35l37.33.18M248.73,73.73l1.04-7.31c-11.82-1.63-23.69,2.36-24.2,7.89l23.16-.58Z"/>
        </g>
      </g>
      <g>
        <path class="cls-1" d="M687.35,88.85c-8.59,13.96-22.82,10.65-34.04,11.65l-13.02-.43c-6.17.32-12.09-.99-16.45-4.81-6.18,2.91-12.06,4.22-18.13,5.42h-8.83c-5.9-.81-13.94-3.93-17.78-9.69s-2.28-12.84,1.53-18.24c8.02-11.4,21.25-16.48,35.36-18.21,7.86-.96,15.61-1.1,22.83,2.26l2.7-1.92c9.45-.27,19.24-.38,27.69.27l-6.14,14.14-3.81,8.35c-1.5,3.28-3.28,6.91-4.56,10.31-.73,2.75,23.31,1.34,24.98,1.23l7.68-.35ZM626.71,83.84c3.1-5.64,5.47-11.14,8.17-17.25-3.28-2.79-7.35-3.49-11.83-2.81-8.38,1.27-15.58,8.55-16.48,16.56-.33,2.95.6,5.57,2.3,7.4,4.71,5.07,16.22-.98,17.83-3.9Z"/>
        <path class="cls-2" d="M626.71,83.84c-1.61,2.92-13.12,8.97-17.83,3.9-1.7-1.83-2.64-4.45-2.3-7.4.9-8.01,8.1-15.29,16.48-16.56,4.48-.68,8.54.02,11.83,2.81-2.7,6.11-5.07,11.61-8.17,17.25Z"/>
      </g>
      <g>
        <path class="cls-2" d="M679.61,98.93l23.48-.25c7.18-.08,13.09-5.66,18.06-9.58l8.08-6.39"/>
        <path class="cls-1" d="M797.83,98.66l-33.18.46c-6.72.09-13.84,1.31-19.25-3.43s4.96-17.39,6.17-24.41l-22.35,13.8-8.08,5.48c-4.96,3.36-10.88,8.14-18.06,8.21l-23.48.21c2.85-8.84,7.25-15.94,11.02-24.02l24.24-51.96c1.33-2.86,1.61-6.43,2.08-9.48,1.1-1.15,4.91-3.82,6.93-3.82l34.22-.02c-4.11,5.18-7.2,9.35-9.66,14.62l-21.25,45.67c13.71-7.12,24.89-14.2,38.78-19.48,6.84-2.6,15.11-1.96,22.3-1.16,3.51,1.06,6.08,3.3,4.78,6.21l-14.16,31.83c8.95.54,16.11.58,24.48.25l10.59-.41c3.07,6.41-10.57,11.35-16.11,11.42Z"/>
      </g>
    </g>
  </g>
</svg>