<?xml version="1.0" encoding="UTF-8"?>
<svg id="Layer_1" data-name="Layer 1" xmlns="http://www.w3.org/2000/svg" viewBox="0 0 824.41 144.24">
  <defs>
    <style>
      .cls-1 {
        fill: #fff;
      }

      .cls-2, .cls-3 {
        stroke: #fbb03a;
        stroke-miterlimit: 10;
        stroke-width: 4px;
      }

      .cls-3 {
        fill: none;
      }
    </style>
  </defs>
  <path class="cls-2" d="M494.57,8.62l2.35-1.63c2.78-1.93,5.96-3.14,9.27-3.53,2.68-.31,5.44-.63,5.54-.63l6.91.99c1.3.35-1.26,12.26-1.41,13.67l-24.17,94.07c-7.77,16.34-17.24,21.51-34.87,21.62l-269.48,1.05c-2.94.02,84.05-12.8,91.27-13.55,10.21-1.61,112.82-2.7,112.82-2.7l29.73-1.34,22.05-.85s3.34-.39,5.33-.85c3.34-.77,6.51-2.15,9.36-4.05l1.2-.8c.48-.32.93-.67,1.36-1.04l2.03-1.79c1.35-1.18,2.57-2.51,3.64-3.94.83-1.12,1.52-2.33,2.12-3.59l2.52-5.23c2.78-5.77,5-11.79,6.62-17.99l.46-1.76c1.39-5.3,2.33-10.71,2.82-16.16l.18-2c.51-2.03-11.71,13.4-13.26,14.71l-10.6,10.2c-3.3,4.45-16.33,12.27-21.86,13.13-8.66,1.35-20.23,2.4-25.8-11.2-1.66-4.05-.66-11.23.79-15.72l7.43-21.42c4.98-13.97,9.27-25.42,12.4-33.6,2.45-6.4,8.58-10.63,15.43-10.65s15.46-.04,17.26-.03l-14.43,38.23s-12.75,31.88-10.68,30.48l55.66-62.09Z"/>
  <path class="cls-2" d="M144.65,43.5l-8.81,23.94-2.41,6.54h-9.12l-23.36-.09,10.22-27.49L128.02,2.11l-24.78-.03c-6.11,0-11.58,3.8-13.7,9.53l-10.67,28.89-5.83,15.54-6.83,18.16-13.04-.35c-11.56-.3-23.47,1.27-33.01,7.83-11.57,7.97-18.54,22.26-18.16,35.52.28,10.24,6.21,16.6,12.99,19.99,2.26,1.13,4.62,2.16,7.02,2.96,3.72,1.24,5.66,1.31,5.66,1.31h0c1.18.18,4.68.43,6.74.6,1.39.12,2.79.17,4.19.17h.19c1.59,0,3.17-.17,4.73-.5,7.94-1.72,15.96-3.28,22.84-7.92,4.75-3.2,9.21-6.34,12.38-11,9.27-13.66,11.66-21.34,17.22-36.52h33.11l-13.66,39.07h33.19l9.72-27.55,4.35-11.46,34.45-.05c4.28-.01,6.62-.01,9.36-3.79,1.87-2.58,3.87-5.35,2.19-8.45h0c-16.12-.03-25.08.82-41.44-.07l7.3-19.58,8.67-23.09,10.47-29.33-21.13.04c-6.84.01-12.99,4.18-15.53,10.53l-12.38,30.93ZM50.66,115.02c-1.77,4.65-6.95,14.32-13.48,13.09-1.38-.26-3.71-2.3-4.03-3.8-2.01-9.63,1.97-20.66,6.48-29.44,5.67-11.05,11.33-8.5,21.99-8.59,0,0-10.96,28.74-10.96,28.74Z"/>
  <path class="cls-3" d="M61.62,86.28l-10.96,28.74c-1.77,4.65-6.95,14.32-13.48,13.09-1.38-.26-3.71-2.3-4.03-3.8-2.01-9.63,1.97-20.66,6.48-29.44,5.67-11.05,11.33-8.5,21.99-8.59Z"/>
  <path class="cls-3" d="M61.62,86.28l-10.96,28.74c-1.77,4.65-6.95,14.32-13.48,13.09-1.38-.26-3.71-2.3-4.03-3.8-2.01-9.63,1.97-20.66,6.48-29.44,5.67-11.05,11.33-8.5,21.99-8.59Z"/>
  <path class="cls-1" d="M355.45,91.2l21.28-55.39c3.31-8.62,6.72-16.21,11.15-24.31-5.31-.69-10.3-.3-15.57-.07-4.9.21-11.35-1.4-15.81,1.41-3.9,2.46-3.51,7.72-4.96,11.47l-19.46,50.46c-2.65,6.87-5.26,13.18-7.34,20.27-1.11,3.77,1.44,8.52,6.18,8.51"/>
  <path class="cls-2" d="M406,102.64l-75.07.11c-12.05-.07-7.67-7.86-6.39-11.58,2.03-5.87,3.89-9.52,6.54-16.39l18.33-44.93c1.45-3.75,4.93-12.69,8.83-15.15,4.46-2.82,9.17-3.06,14.07-3.27,5.27-.23,10.25-.62,15.57.07-4.44,8.1-7.84,15.69-11.15,24.31l-19.32,55.28,20.04,3.11,28.55,8.44Z"/>
  <path class="cls-2" d="M326.35,92.72l-29.4-.4,21.28-57.39c3.31-8.62,6.72-16.21,11.15-24.31-5.31-.69-10.3-1.1-15.57-.88-4.9.21-9.63-.6-14.09,2.22-3.9,2.46-5.23,7.72-6.68,11.47l-19.46,50.46c-2.65,6.87-5.26,13.18-7.34,20.27-1.11,3.77-6.06,9.38,5.18,9.51l61.02-1.14"/>
  <path class="cls-2" d="M531.73,103.49h.01c-10.81-.18-18.53-6.65-20.47-13.92-2.43-9.1,3.51-27.98,18.54-33.05,14.83-5,26.24-4.47,41.29-.02,5.71,1.69,10.8,5.94,10.74,11.33-.1,7.87-6.74,13.46-15.89,15.39-13.7,1.55-21.01.27-31.38,1.66-.17,5.2.76,7.31,6.06,7.35l23.33.18c9.38-.12,24.61.37,30.74-1.19,2.11,5.62-8.25,10.57-15.22,10.99l-47.75,1.28ZM559.16,72.73l1.04-7.31c-11.82-1.63-22.69,2.36-23.2,7.89l22.16-.58h0Z"/>
  <path class="cls-2" d="M268.19,103.55c-6.8.41-20.65-.32-39.58.77l-17.3.17c-10.81-.18-18.53-6.65-20.47-13.92-2.43-9.1,3.51-27.98,18.54-33.05,14.83-5,26.24-4.47,41.29-.02,5.71,1.69,10.8,5.94,10.74,11.33-.1,7.87-6.74,13.46-15.89,15.39-13.7,1.55-17.86,1.34-31.38,1.66-.17,5.2.76,7.31,6.06,7.35l47.27.18M238.72,72.73l1.04-6.31c-11.82-1.63-23.69,1.36-24.2,6.89l23.16-.58Z"/>
  <path class="cls-2" d="M691.66,88.2c-1.67.11-25.71,1.52-24.98-1.23,1.27-3.4,3.06-7.02,4.56-10.31l3.81-8.34,6.14-14.15c-8.45-.64-18.24-.53-27.69-.26l-2.7,1.91c-7.23-3.36-14.97-3.22-22.83-2.26-14.11,1.73-27.34,6.81-35.36,18.21-3.8,5.4-5.29,12.59-1.53,18.24,3.85,5.76,11.89,8.87,17.78,9.68h8.83c6.07-1.2,11.95-2.51,18.13-5.42,5.02,2.91,11.05,4.65,16.45,4.81l13.03.42c13.49-.58,18.3,3.25,34.04-11.65l-7.68.35h0ZM638.7,82.84c-1.61,2.92-13.12,8.96-17.83,3.9-1.7-1.83-2.64-4.46-2.3-7.4.9-8.01,8.1-15.29,16.48-16.56,4.47-.68,8.54.02,11.82,2.81-2.7,6.11-5.07,11.61-8.17,17.25Z"/>
  <path class="cls-2" d="M762.79,11.79c-4.12,7.23-7.9,13.23-10.35,18.5l-17.25,38.67c13.71-7.12,24.89-14.2,38.78-19.48,6.84-2.6,15.11-1.96,22.3-1.16,3.51,1.06,6.08,3.3,4.78,6.21l-14.16,31.83c8.95.54,16.11.58,24.48.25l10.59-.41c3.07,6.41-10.57,11.35-16.11,11.42l-.02.03h0l-33.18.46c-6.72.09-13.84,1.31-19.25-3.43s2.28-16.46,6.17-24.41l-22.35,13.8-8.08,5.48c-4.96,3.36-10.88,8.14-18.06,8.21l-23.48.21c2.85-8.84,7.25-15.94,11.02-24.02l24.24-51.96c.25-.54.48-1.07.71-1.61,2.01-4.79,6.65-7.94,11.84-8.04l27.38-.55Z"/>
</svg>