<?xml version="1.0" encoding="UTF-8"?>
<svg id="Layer_2" data-name="Layer 2" xmlns="http://www.w3.org/2000/svg" viewBox="0 0 405.7 387.6">
  <defs>
    <style>
      .cls-1 {
        stroke: #4d4d4d;
      }

      .cls-1, .cls-2 {
        fill: #fbb03b;
        stroke-miterlimit: 10;
      }

      .cls-2 {
        stroke: #333;
      }
    </style>
  </defs>
  <g id="Layer_2-2" data-name="Layer 2">
    <g id="Layer_1-2" data-name="Layer 1-2">
      <g>
        <polygon class="cls-1" points=".51 373.53 35.73 373.67 .51 386.88 .51 373.53"/>
        <path class="cls-1" d="M201.51,169.81c-.83,17.72-12.13,33.22-33.91,46.5-15.58,9.45-33.52,16.43-53.7,20.94l26.88-73.37h-56.57L.5,347.04v-202.93l162.31.06c12.96,0,21.96,1.11,27.01,3.21,8.3,3.58,12.2,11.05,11.68,22.42h.01Z"/>
        <path class="cls-1" d="M9,105.76l-8.49-.33V.78l256.11,115.87c1.57.75-4.99-2.26-31.92-7.21-8.11-1.49-26-3.68-36.28-3.68H9Z"/>
        <path class="cls-2" d="M403.09,193.23L64.81,355.46l38.5-88.8c39.2-7.53,73.05-18.53,101.52-33.1,42.52-21.55,61.37-56.52,65.04-69.52,2.64-9.35,3.26-19.92,4.08-27.79.32-3.12,2.8-7.21,5.71-5.81l123.44,62.8h-.01Z"/>
      </g>
    </g>
  </g>
</svg>