<?xml version="1.0" encoding="UTF-8"?>
<svg id="Layer_2" data-name="Layer 2" xmlns="http://www.w3.org/2000/svg" viewBox="0 0 996.99 311.92">
  <defs>
    <style>
      .cls-1, .cls-2, .cls-3 {
        fill: #fff;
      }

      .cls-4 {
        stroke: #4d4d4d;
      }

      .cls-4, .cls-2, .cls-3, .cls-5 {
        stroke-miterlimit: 10;
      }

      .cls-4, .cls-5 {
        fill: #fbb03b;
      }

      .cls-2, .cls-3 {
        stroke: #f7931e;
      }

      .cls-3 {
        stroke-width: 2px;
      }

      .cls-5 {
        stroke: #333;
      }
    </style>
  </defs>
  <g id="Layer_1-2" data-name="Layer 1-2">
    <path class="cls-4" d="M155.5,136.69c-.6,14.2-9.4,26.7-26.1,37.4-12,7.6-25.8,13.2-41.4,16.8l20.7-59h-43.6L.5,279.19V115.99h125.2c10,0,16.9.9,20.8,2.6,6.4,2.9,9.4,8.9,9,18v.1Z"/>
    <path class="cls-2" d="M700,115.39l-.5,21.1h0c-5.6-2.1-9.3-6-9.3-10.5s4-8.6,9.9-10.7h0l-.1.1Z"/>
    <path class="cls-2" d="M725.8,124.09l-22.6-9.2v-.1c2.3-.5,9-.7,10.6-.5,7.8.7,11.8,3.6,14.5,10.8.3.9-1.4-.5-2.5-.9h0v-.1Z"/>
    <path class="cls-2" d="M719.8,130.89c1.6-.6,8.9-4.3,8.3-3.4-3.5,5.6-9.9,12-18.6,12s-5-.4-7.2-1v-.4l17.6-7.3h0l-.1.1Z"/>
    <path class="cls-3" d="M857.5,185.89c.6,0,1.2.2,1.5.6"/>
    <g>
      <polygon class="cls-4" points=".5 300.49 27.7 300.59 .5 311.19 .5 300.49"/>
      <path class="cls-4" d="M7.1,85.19l-6.6-.3V.79l197.5,93.2c1.2.6-3.9-1.8-24.6-5.8-6.2-1.2-17-3.2-28-3H7.1Z"/>
      <g>
        <path class="cls-5" d="M310.9,155.49L50.1,285.99l29.7-71.4c30.2-6.1,56.3-14.9,78.3-26.6,32.8-17.3,47.3-45.4,50.1-55.9,2-7.5,2.5-16,3.1-22.3.2-2.5,2.2-5.8,4.4-4.7l95.2,50.5h0v-.1Z"/>
        <path class="cls-3" d="M521.7,112.69c0,16.3-14.3,30.2-43,41.9-19.1,7.9-41.9,13.8-68.3,17.9h0l-12.8,28.7h-38.2l38.3-84.5h37.9l-18,39.5h0c13.5-2.4,25.6-6.2,36.1-11.3,14.6-7.2,22.2-15.6,22.8-25.2.4-6.2-2.3-10.2-7.9-12.1-3.4-1.2-9.4-1.7-18.2-1.7h-107.3l16.3-20.7h108.2c15.8,0,27.9,1.5,36.3,4.6,11.8,4.3,17.8,12,17.8,22.9h0Z"/>
        <path class="cls-3" d="M995,185.69h-43.2l19.3-42.7h-37.8l-19.3,42.8h-21.2l19.6-42.7h-38l-20.4,45.2-79.8-.7,13.2-24.1c2.2-4.5,5.2-8.5,9-12,4.2-3.8,8.1-5.7,11.8-5.7h0c1,0,1.8.7,1.6,1.4-.4,1.5-.7,2.9-.7,4.4,0,5.5,2.7,10.2,8.1,14,5.4,3.9,11.9,5.8,19.4,5.8s14.2-2,19.9-5.8c5.7-3.9,8.5-8.5,8.5-14,0-13.5-13.1-20.2-39.4-20.2s-35.8,2.6-47.8,7.8c-13.9,6.1-24.4,16.4-31.3,30.9v.1l-5.9,16.6h-3.3l-28.9-.4h0l19.4-42.7h-38l-.8,1.9-2.9,7.2-14.2,34.8-28.3.9h0l13.1-29.6h6.9c13.3,0,19.7-4.5,24.1-13.2h-24.6l14.7-32.9h-20.4c-7.6,11.4-14.8,19.2-21.5,23.6-5.9,3.8-15,7-27.3,9.5h0l-6.6,13.1h17.1l-12.3,27.3h-28.1l19.7-42.7h-59.9c-15,0-27.6,3-37.7,9.1-11.2,6.7-16.8,15.7-16.8,27.2s2.6,11.5,7.7,15.5,11.8,5.9,20,5.9,20.5-3.4,28.1-10.2h0c0,5.6,5.7,8.5,17,8.5l62.4.7,113.5-.8-27.5,62.2c-.4.8.5,1.5,1.6,1.5h34.5c.8,0,1.4-.3,1.6-.8l27.6-62.2c.2-.5.9-.8,1.6-.8l99.3.2h7.8v.2c-3.8,2.2-7,5.3-9.3,9.4-2.4,4.1-3.6,8.4-3.6,12.8s2.1,10.1,6.2,13.6c4.8,4,11.5,6,20.3,6,13.9,0,25.6-4.3,35-13,6.7-6.3,13.1-15.9,19.2-28.9h25.6c11.3,0,19-4.4,23.2-13.1h0l-.8-.9ZM540.4,185.69h0c-11.9,0-17.8-2.4-17.8-7.2s.2-2.1.6-3.3l7.3-19.2h23.1l-13.3,29.6.1.1ZM907.1,201.19l-12.6,27h0c-4-2.2-6.1-5.1-6.1-8.7s2-8.2,5.9-12.2c3.9-4.1,8.2-6.1,12.8-6.2h0v.1ZM687,145.09h1.4-1.4Z"/>
      </g>
    </g>
    <path class="cls-1" d="M734.4,198.59c-.2-.4-.9-1.2-1.3-1.4.1,0,.2.1.4.2-.2,0-.3.3-.5.4,1.7.5,4.2.3,6,0l-4.6.9v-.1Z"/>
  </g>
</svg>