<?xml version="1.0" encoding="UTF-8"?>
<svg id="Layer_2" data-name="Layer 2" xmlns="http://www.w3.org/2000/svg" viewBox="0 0 507.62 139.95">
  <defs>
    <style>
      .cls-1 {
        fill: #fff;
      }

      .cls-2 {
        fill: #f7931e;
      }
    </style>
  </defs>
  <g id="Layer_2-2" data-name="Layer 2">
    <g>
      <path class="cls-2" d="M277.7,24.39l-.43,16.43s-.02.05-.05.04c-4.35-1.68-7.26-4.71-7.26-8.18s3.1-6.7,7.68-8.34c.02,0,.05.02.05.05h0Z"/>
      <path class="cls-2" d="M277.18,41.29l-.13-.08c-4.68-1.81-7.47-5-7.47-8.53s3.12-6.98,7.94-8.71l.19-.07.35.24.02.26-.43,16.61-.09.07-.04.1-.35.11ZM277.3,24.89c-4.23,1.66-6.94,4.68-6.94,7.79s2.43,5.92,6.54,7.63l.4-15.42Z"/>
      <path class="cls-2" d="M297.76,31.15l-17.52-7.18s-.04-.08,0-.09c1.82-.41,6.95-.52,8.23-.41,6.06.53,9.19,2.77,11.27,8.41.25.68-1.07-.36-1.97-.73h0Z"/>
      <path class="cls-2" d="M299.69,32.49c-.27,0-.61-.2-1.11-.48-.29-.17-.62-.35-.89-.47l-.07-.02-17.66-7.24-.15-.3.07-.25c.06-.12.16-.2.28-.22,1.86-.42,7.06-.53,8.34-.42,6.25.55,9.5,2.97,11.6,8.66.13.36-.01.56-.11.64-.09.08-.19.11-.31.11ZM297.84,30.76l.08.03c.33.14.71.35,1.04.54.06.04.13.07.2.11-2.01-5.02-4.97-7.08-10.72-7.59-1-.09-4.66-.03-6.91.22l16.3,6.68Z"/>
      <path class="cls-2" d="M293.04,36.48c1.21-.48,6.91-3.36,6.45-2.62-2.75,4.4-7.71,9.38-14.46,9.38-2.03,0-3.86-.28-5.63-.75-.04,0-.08-.32-.04-.34l13.69-5.68h0Z"/>
      <path class="cls-2" d="M285.03,43.63c-1.91,0-3.78-.25-5.71-.76-.12-.02-.28-.11-.34-.4-.07-.36.01-.58.24-.67l11.88-4.93h-.07l1.88-.75c.33-.13,1.04-.47,1.86-.85,4.48-2.1,4.74-2.1,5.03-1.76.11.12.17.33.02.56-1.8,2.88-6.83,9.56-14.79,9.56ZM280.11,42.26c1.66.39,3.27.58,4.92.58,6.99,0,11.64-5.48,13.68-8.5-.97.38-2.61,1.15-3.62,1.62-.08.04-.17.08-.25.12h.16l-14.9,6.18Z"/>
      <path class="cls-1" d="M399.95,79.39c.47,0,.9.16,1.15.44"/>
      <path class="cls-2" d="M400.53,80.35c-.08-.09-.31-.18-.57-.18v-1.56c.69,0,1.33.26,1.72.69l-1.15,1.05Z"/>
      <path class="cls-1" d="M139.35,22.27c0,12.69-11.12,23.59-33.35,32.69-14.84,6.14-32.5,10.78-52.99,13.96,0,0-.02,0-.02.02l-9.93,22.35s-.02.02-.03.02H13.33s-.05-.04-.03-.07L43.03,25.32s.02-.02.03-.02h29.44s.05.04.03.07l-13.96,30.8s0,.07.04.07c10.51-1.89,19.84-4.82,27.98-8.8,11.36-5.62,17.26-12.16,17.7-19.63.27-4.8-1.77-7.95-6.11-9.46-2.61-.9-7.31-1.35-14.11-1.35H.81s-.05-.05-.02-.08L13.43.8s.02-.02.02-.02h83.99c12.28,0,21.67,1.2,28.14,3.6,9.19,3.39,13.78,9.35,13.78,17.89h-.02,0Z"/>
      <path class="cls-2" d="M43.01,92.09H13.05l-.69-.57.24-.62L42.35,24.94l.27-.4.44-.02h29.72l.69.57-.24.62-13.37,29.5c9.85-1.88,18.73-4.73,26.4-8.48,11.03-5.46,16.84-11.84,17.27-18.97.25-4.45-1.58-7.28-5.59-8.68-2.5-.87-7.16-1.31-13.86-1.31H.48l-.23-.23c-.3-.3-.34-.76-.1-1.09L12.88.25l.23-.24.35-.02h83.99c12.32,0,21.88,1.23,28.41,3.65,9.48,3.5,14.29,9.76,14.29,18.62l-.03.78c-.45,12.65-11.82,23.62-33.82,32.63-14.71,6.08-32.46,10.77-52.76,13.94l-9.84,22.1-.23.34-.44.02ZM14.47,90.53h28.06l9.67-21.76v-.61l.73-.02c20.34-3.15,38.09-7.83,52.77-13.9,21.81-8.93,32.87-19.68,32.87-31.97v-.78c-.27-7.82-4.61-13.18-13.26-16.38-6.36-2.36-15.73-3.55-27.87-3.55H13.82L2.32,16.22h81.75c6.96,0,11.66.46,14.36,1.39,4.7,1.63,6.93,5.07,6.64,10.24-.46,7.73-6.56,14.55-18.13,20.28-8.16,3.99-17.64,6.98-28.19,8.87h-.14c-.46.01-.81-.36-.81-.84v-.17l13.56-29.92h-27.82L14.47,90.53Z"/>
      <path class="cls-1" d="M506.65,79.23h-33.55l-.03-.07,14.95-33.32-.03-.07h-29.36l-.03.02-14.98,33.41-.03.02h-16.47l-.03-.07,15.19-33.32-.03-.07h-29.52l-.03.02-15.85,35.21-61.92-.55,10.23-18.76c1.68-3.52,4.02-6.63,7.02-9.33,3.26-2.96,6.3-4.44,9.13-4.44h.02c.8,0,1.4.55,1.23,1.09-.34,1.15-.51,2.28-.51,3.41,0,4.3,2.1,7.95,6.28,10.94,4.18,3,9.21,4.51,15.09,4.51s11.01-1.52,15.41-4.54c4.41-3.03,6.61-6.66,6.61-10.91,0-10.5-10.2-15.76-30.58-15.76-15.44,0-27.8,2.02-37.11,6.05-10.82,4.75-18.9,12.78-24.29,24.09,0,.03-.03.09-.03.09l-4.55,12.92h-2.54l-22.43-.28s-.03-.07-.03-.07l15.02-33.32-.03-.07h-29.52l-.03.02-.59,1.45-2.28,5.6-11.04,27.14-21.95.73-.03-.07,10.16-23.07.03-.02h5.36c10.3,0,15.32-3.48,18.7-10.29h-19.13l-.03-.07,11.44-25.66-.03-.07h-15.82s-.02,0-.02,0c-5.92,8.88-11.49,15.01-16.71,18.39-4.62,2.99-11.68,5.47-21.19,7.39,0,0-.02.02-.02.02l-5.09,10.21.03.07h13.25l.03.07-9.53,21.31h-21.79l-.03-.07,15.27-33.32-.03-.07h-46.51c-11.63,0-21.39,2.36-29.28,7.08-8.7,5.19-13.05,12.27-13.05,21.23,0,4.97,1.99,9.01,5.95,12.09,3.97,3.09,9.13,4.63,15.5,4.63,8.62,0,15.88-2.65,21.81-7.94.02-.02.05,0,.05.04.05,4.41,4.45,6.61,13.21,6.61l48.42.57,88.07-.59-21.38,48.47c-.27.6.37,1.21,1.27,1.21h26.8c.58,0,1.1-.27,1.27-.65l21.45-48.49c.17-.39.68-.65,1.26-.65l77.04.12,6.07.04s0,.04.02.09c-2.99,1.71-5.39,4.15-7.24,7.31-1.88,3.22-2.82,6.54-2.82,9.97,0,4.33,1.6,7.87,4.81,10.61,3.69,3.13,8.94,4.69,15.74,4.69,10.82,0,19.87-3.39,27.16-10.17,5.21-4.88,10.19-12.38,14.91-22.5,0-.02.03-.02.03-.02h19.88c8.78,0,14.77-3.41,17.99-10.22.02-.03-.03-.07-.03-.07h0ZM153.86,79.2s-.02.02-.03.02c-9.23,0-13.84-1.87-13.84-5.6,0-.77.16-1.63.49-2.57l5.7-14.96.03-.02h17.94l.03.06-10.31,23.07ZM438.42,91.34l-9.82,21.06s-.03.02-.05.02c-3.14-1.72-4.7-3.98-4.7-6.81,0-3.17,1.54-6.36,4.61-9.55,3.05-3.18,6.36-4.78,9.93-4.8.03,0,.03.07.03.07h0ZM267.64,47.55h1.06s-1.04-.03-1.06,0Z"/>
      <path class="cls-2" d="M309.09,139.95h-26.8c-.79,0-1.51-.35-1.87-.91-.28-.43-.32-.94-.11-1.4l20.89-47.36-86.87.58-48.43-.57c-8.26,0-12.89-1.99-13.81-5.93-5.87,4.8-13,7.22-21.24,7.22-6.51,0-11.89-1.61-15.97-4.8-4.15-3.23-6.25-7.51-6.25-12.71,0-9.21,4.52-16.58,13.43-21.9,7.97-4.77,17.96-7.19,29.68-7.19h47.01l.35.79-.12.39-14.8,32.28h20.14l8.86-19.82h-12.61l-.35-.8.13-.4,5.15-10.32.25-.26.25-.07c9.35-1.89,16.39-4.34,20.92-7.28,5.11-3.32,10.65-9.43,16.48-18.17l.23-.35h16.76s.35.77.35.77l-.11.39-10.98,24.63h17.96c.15-.02.34-.02.57-.01l.47-1.15.38-.29.29-.02h30.02l.35.78-.11.39-14.56,32.3,23.29.27,4.43-12.56c5.45-11.44,13.75-19.67,24.68-24.46,9.37-4.06,21.96-6.12,37.42-6.12,20.81,0,31.36,5.56,31.36,16.54,0,4.5-2.34,8.39-6.95,11.55-4.52,3.1-9.85,4.67-15.85,4.67s-11.24-1.57-15.54-4.65c-4.38-3.14-6.6-7.03-6.6-11.57,0-1.18.18-2.38.53-3.57-.06-.06-.22-.15-.47-.15-2.63,0-5.53,1.43-8.63,4.24-2.9,2.61-5.2,5.67-6.84,9.09l-9.62,17.65,60.12.53,15.72-34.93.37-.27.29-.02h30.02l.35.78-.12.39-14.71,32.28h14.85l14.87-33.16.37-.27.29-.02h29.86l.35.78-.11.39-14.48,32.29h32.69l.7.58-.25.63c-3.33,7.06-9.62,10.65-18.68,10.65h-19.41c-4.68,9.94-9.69,17.45-14.89,22.31-7.41,6.89-16.72,10.38-27.69,10.38-6.95,0-12.41-1.64-16.24-4.88-3.38-2.89-5.09-6.66-5.09-11.21,0-3.55.98-7.04,2.92-10.37,1.47-2.52,3.3-4.61,5.47-6.24l-3.65-.02-77.04-.12c-.32,0-.52.13-.55.19l-21.45,48.49c-.3.68-1.08,1.12-1.98,1.12ZM281.75,138.23c.07.06.25.16.54.16h26.8c.33,0,.53-.14.56-.19l21.45-48.49c.3-.68,1.07-1.12,1.97-1.12l77.04.12,6.84.04v.63l.26.52-.63.39c-2.84,1.62-5.18,3.99-6.95,7.03-1.8,3.08-2.71,6.31-2.71,9.58,0,4.13,1.48,7.41,4.54,10.02,3.53,2.99,8.66,4.51,15.24,4.51,10.56,0,19.53-3.35,26.63-9.96,5.12-4.79,10.08-12.28,14.74-22.25l.14-.29.46-.18h20.01c8.06,0,13.55-2.86,16.76-8.73h-32.86l-.34-.78.11-.39,14.48-32.29h-27.74l-14.87,33.16-.37.28-.29.02h-16.98l-.34-.79.11-.39,14.71-32.28h-27.89l-15.86,35.24-63.72-.56,10.85-19.9c1.71-3.57,4.13-6.78,7.18-9.53,3.39-3.08,6.64-4.64,9.65-4.64.73,0,1.38.3,1.75.8.28.38.37.86.24,1.29-.32,1.07-.48,2.14-.48,3.18,0,4.07,1.95,7.44,5.95,10.3,4.03,2.9,8.96,4.36,14.64,4.36s10.71-1.48,14.97-4.4c4.22-2.9,6.27-6.25,6.27-10.26,0-9.94-10.03-14.98-29.81-14.98-15.25,0-27.63,2.01-36.8,5.99-10.55,4.63-18.58,12.58-23.86,23.63-.01.04-.03.09-.05.13l-4.71,13.39h-3.09l-23.21-.29-.03-1.01.07-.15,14.56-32.29-27.38.27-15.64,34.21-21.76.47-.35-.79.11-.39,10.24-23.26.37-.28.29-.02h5.36c8.8,0,13.94-2.55,17.41-8.73h-18.34l-.35-.78.11-.39,10.98-24.63h-14.29c-5.87,8.74-11.48,14.89-16.71,18.28-4.64,3.01-11.73,5.51-21.09,7.43l-4.4,8.83h12.56l.35.78-.11.39-9.73,21.77h-22.8l-.35-.79.12-.39,14.8-32.28h-45.36c-11.43,0-21.15,2.35-28.88,6.97-8.41,5.02-12.67,11.94-12.67,20.56,0,4.76,1.85,8.52,5.65,11.48,3.81,2.97,8.86,4.47,15.02,4.47,8.37,0,15.54-2.6,21.29-7.74l.37-.33.95.39.03.56c.04,3.87,4.22,5.83,12.43,5.83l48.42.57,89.26-.6-21.84,49.52ZM244.06,58.62l-9.5,21.57,20.28-.67,11.52-28.3c-3.72,5.21-9.03,7.4-17.42,7.4h-4.88ZM428.68,113.31l-.47-.2c-3.41-1.87-5.13-4.39-5.13-7.5,0-3.36,1.62-6.76,4.83-10.09,3.19-3.32,6.71-5.02,10.48-5.03h.78s.03,1.02.03,1.02l-.07.16-9.9,21.24-.54.4ZM437.2,92.11c-2.89.33-5.64,1.84-8.18,4.49-2.92,3.03-4.39,6.06-4.39,9.01,0,2.33,1.18,4.21,3.61,5.72l8.96-19.22ZM153.83,80c-9.84,0-14.62-2.09-14.62-6.38,0-.86.18-1.81.53-2.83l5.78-15.19.38-.29.29-.02h18.42l.38.76-.12.4-10.38,23.19-.23.34-.44.02ZM146.71,56.84l-5.51,14.49c-.29.83-.44,1.61-.44,2.29,0,3.14,4.23,4.76,12.59,4.82l9.65-21.6h-16.29Z"/>
      <path class="cls-1" d="M304.4,89.27h0c-.19-.3-.71-.93-1.04-1.08.11.03.19.08.29.14-.13.06-.26.23-.36.28"/>
      <path class="cls-1" d="M255.75,79.37l10.68-26.22"/>
      <polygon class="cls-2" points="255.18 81.29 233.42 81.79 233.42 80.23 254.15 79.54 265.71 52.85 267.14 53.44 255.18 81.29"/>
    </g>
  </g>
</svg>